<?xml version="1.0" standalone="no"?>
<!DOCTYPE svg PUBLIC "-//W3C//DTD SVG 20010904//EN"
 "http://www.w3.org/TR/2001/REC-SVG-20010904/DTD/svg10.dtd">
<svg version="1.0" xmlns="http://www.w3.org/2000/svg"
 width="512.000000pt" height="512.000000pt" viewBox="0 0 512.000000 512.000000"
 preserveAspectRatio="xMidYMid meet">

<g transform="translate(0.000000,512.000000) scale(0.100000,-0.100000)"
fill="#000000" stroke="none">
<path d="M2375 5054 c-16 -2 -73 -9 -125 -15 -435 -49 -869 -231 -1240 -518
-110 -85 -327 -302 -412 -412 -277 -358 -445 -751 -515 -1206 -23 -150 -23
-536 0 -686 112 -727 493 -1334 1087 -1732 330 -221 669 -348 1085 -407 135
-19 503 -16 650 5 373 55 731 192 1035 395 617 413 996 1025 1102 1777 17 119
16 493 -1 615 -88 635 -394 1199 -866 1597 -357 302 -802 502 -1265 568 -108
16 -467 29 -535 19z m835 -804 c102 -6 195 -12 208 -15 l22 -5 0 -270 0 -270
-203 0 c-279 0 -334 -19 -386 -129 -25 -55 -26 -58 -26 -301 l0 -245 299 -3
299 -2 -5 -33 c-3 -17 -21 -152 -39 -299 l-34 -268 -262 0 -263 0 0 -775 0
-775 -310 0 -310 0 0 775 0 775 -260 0 -260 0 0 300 0 300 259 0 259 0 4 313
c5 355 12 400 90 557 81 165 251 299 437 346 134 33 223 38 481 24z"/>
</g>
</svg>
