<?xml version="1.0" standalone="no"?>
<!DOCTYPE svg PUBLIC "-//W3C//DTD SVG 20010904//EN"
 "http://www.w3.org/TR/2001/REC-SVG-20010904/DTD/svg10.dtd">
<svg version="1.0" xmlns="http://www.w3.org/2000/svg"
 width="512.000000pt" height="512.000000pt" viewBox="0 0 512.000000 512.000000"
 preserveAspectRatio="xMidYMid meet">

<g transform="translate(0.000000,512.000000) scale(0.100000,-0.100000)"
fill="#000000" stroke="none">
<path d="M2375 5054 c-16 -2 -73 -9 -125 -15 -435 -49 -869 -231 -1240 -518
-110 -85 -327 -302 -412 -412 -277 -358 -445 -751 -515 -1206 -23 -150 -23
-536 0 -686 112 -727 493 -1334 1087 -1732 330 -221 669 -348 1085 -407 135
-19 503 -16 650 5 373 55 731 192 1035 395 617 413 996 1025 1102 1777 17 117
17 493 0 610 -91 647 -391 1200 -867 1602 -357 302 -802 502 -1265 568 -108
16 -467 29 -535 19z m1099 -1274 c503 -28 606 -54 720 -181 87 -97 126 -219
157 -499 18 -158 18 -922 0 -1080 -31 -280 -70 -402 -157 -499 -90 -100 -177
-135 -386 -156 -317 -31 -559 -38 -1248 -38 -689 0 -931 7 -1248 38 -209 21
-296 56 -386 156 -87 97 -125 218 -157 499 -18 157 -18 921 0 1080 31 280 70
402 157 499 109 122 190 144 634 177 317 23 1517 25 1914 4z"/>
<path d="M2144 3136 c-18 -14 -19 -33 -22 -513 -2 -274 0 -513 3 -531 14 -74
4 -78 576 210 517 260 524 263 524 293 0 30 -7 34 -520 292 -286 144 -525 262
-531 262 -5 1 -19 -5 -30 -13z"/>
</g>
</svg>
